<svg width="115" height="20" viewBox="0 0 115 20" fill="none" xmlns="http://www.w3.org/2000/svg">
<path d="M34.8235 15.7902C33.8925 15.7902 33.0087 15.6013 32.1721 15.2235C31.3491 14.8456 30.6204 14.3262 29.9863 13.665C29.3656 12.9903 28.8798 12.2077 28.529 11.3172C28.1782 10.4267 28.0028 9.46191 28.0028 8.42294C28.0028 7.43794 28.1782 6.51367 28.529 5.65011C28.8798 4.77306 29.3723 4.00395 30.0065 3.34279C30.6407 2.68163 31.3828 2.16215 32.2329 1.78434C33.0829 1.40654 34.0072 1.21763 35.0057 1.21763C36.355 1.21763 37.5087 1.50773 38.4667 2.08794C39.4382 2.65465 40.1668 3.41026 40.6525 4.35477L38.5679 5.89299C38.2035 5.17785 37.6908 4.63138 37.0296 4.25358C36.382 3.87577 35.6736 3.68687 34.9045 3.68687C34.2973 3.68687 33.7441 3.81505 33.2448 4.07142C32.7456 4.32779 32.3138 4.67861 31.9495 5.12388C31.5852 5.56915 31.3018 6.08189 31.0994 6.66209C30.9105 7.24229 30.8161 7.85623 30.8161 8.5039C30.8161 9.19204 30.9173 9.82622 31.1197 10.4064C31.3356 10.9866 31.6324 11.4926 32.0102 11.9244C32.4015 12.3562 32.8535 12.7002 33.3663 12.9566C33.879 13.1995 34.4457 13.3209 35.0664 13.3209C35.795 13.3209 36.4899 13.132 37.1511 12.7542C37.8257 12.3764 38.4532 11.8232 39.0334 11.0946V13.8472C37.8325 15.1425 36.4292 15.7902 34.8235 15.7902ZM38.831 10.3457H35.9367V8.3015H41.1383V15.689H38.831V10.3457Z" fill="#299D6B"/>
<path d="M48.1535 15.8914C47.29 15.8914 46.5141 15.7497 45.826 15.4663C45.1378 15.1695 44.5509 14.7647 44.0651 14.2519C43.5929 13.7392 43.2286 13.1523 42.9722 12.4911C42.7158 11.8299 42.5876 11.135 42.5876 10.4064C42.5876 9.6643 42.7158 8.96266 42.9722 8.3015C43.2286 7.64034 43.5929 7.05339 44.0651 6.54065C44.5509 6.02792 45.1378 5.62987 45.826 5.34652C46.5141 5.04967 47.29 4.90124 48.1535 4.90124C49.0171 4.90124 49.7862 5.04967 50.4608 5.34652C51.149 5.62987 51.7359 6.02792 52.2217 6.54065C52.7074 7.05339 53.0718 7.64034 53.3146 8.3015C53.571 8.96266 53.6992 9.6643 53.6992 10.4064C53.6992 11.135 53.571 11.8299 53.3146 12.4911C53.0718 13.1523 52.7074 13.7392 52.2217 14.2519C51.7494 14.7647 51.1692 15.1695 50.4811 15.4663C49.7929 15.7497 49.0171 15.8914 48.1535 15.8914ZM45.3807 10.4064C45.3807 11.0271 45.5021 11.5803 45.745 12.0661C45.9879 12.5383 46.3185 12.9094 46.7368 13.1792C47.155 13.4491 47.6273 13.584 48.1535 13.584C48.6663 13.584 49.1318 13.4491 49.5501 13.1792C49.9683 12.8959 50.2989 12.5181 50.5418 12.0458C50.7982 11.5601 50.9264 11.0069 50.9264 10.3862C50.9264 9.77899 50.7982 9.23252 50.5418 8.74677C50.2989 8.26102 49.9683 7.88321 49.5501 7.61335C49.1318 7.34349 48.6663 7.20856 48.1535 7.20856C47.6273 7.20856 47.155 7.35024 46.7368 7.63359C46.3185 7.90345 45.9879 8.28126 45.745 8.76701C45.5021 9.23927 45.3807 9.78574 45.3807 10.4064Z" fill="#299D6B"/>
<path d="M60.4278 15.8914C59.5642 15.8914 58.7883 15.7497 58.1002 15.4663C57.412 15.1695 56.8251 14.7647 56.3393 14.2519C55.8671 13.7392 55.5028 13.1523 55.2464 12.4911C54.99 11.8299 54.8619 11.135 54.8619 10.4064C54.8619 9.6643 54.99 8.96266 55.2464 8.3015C55.5028 7.64034 55.8671 7.05339 56.3393 6.54065C56.8251 6.02792 57.412 5.62987 58.1002 5.34652C58.7883 5.04967 59.5642 4.90124 60.4278 4.90124C61.2913 4.90124 62.0604 5.04967 62.7351 5.34652C63.4232 5.62987 64.0102 6.02792 64.4959 6.54065C64.9817 7.05339 65.346 7.64034 65.5889 8.3015C65.8452 8.96266 65.9734 9.6643 65.9734 10.4064C65.9734 11.135 65.8452 11.8299 65.5889 12.4911C65.346 13.1523 64.9817 13.7392 64.4959 14.2519C64.0237 14.7647 63.4435 15.1695 62.7553 15.4663C62.0672 15.7497 61.2913 15.8914 60.4278 15.8914ZM57.6549 10.4064C57.6549 11.0271 57.7764 11.5803 58.0192 12.0661C58.2621 12.5383 58.5927 12.9094 59.011 13.1792C59.4293 13.4491 59.9015 13.584 60.4278 13.584C60.9405 13.584 61.406 13.4491 61.8243 13.1792C62.2426 12.8959 62.5732 12.5181 62.816 12.0458C63.0724 11.5601 63.2006 11.0069 63.2006 10.3862C63.2006 9.77899 63.0724 9.23252 62.816 8.74677C62.5732 8.26102 62.2426 7.88321 61.8243 7.61335C61.406 7.34349 60.9405 7.20856 60.4278 7.20856C59.9015 7.20856 59.4293 7.35024 59.011 7.63359C58.5927 7.90345 58.2621 8.28126 58.0192 8.76701C57.7764 9.23927 57.6549 9.78574 57.6549 10.4064Z" fill="#299D6B"/>
<path d="M67.1563 10.3862C67.1563 9.36071 67.3587 8.43643 67.7635 7.61335C68.1683 6.77678 68.7283 6.11562 69.4434 5.62987C70.1585 5.14412 70.9749 4.90124 71.8924 4.90124C72.675 4.90124 73.3766 5.09689 73.9973 5.48819C74.6315 5.866 75.124 6.35175 75.4748 6.94545V0.914039H78.1869V12.653C78.1869 12.9364 78.2341 13.1388 78.3286 13.2602C78.423 13.3816 78.585 13.4559 78.8143 13.4828V15.689C78.3421 15.7834 77.9575 15.8306 77.6607 15.8306C77.1749 15.8306 76.7701 15.7092 76.4463 15.4663C76.136 15.2235 75.9606 14.9064 75.9201 14.5151L75.8796 13.8472C75.4883 14.5083 74.9553 15.0143 74.2807 15.3651C73.6195 15.7159 72.9246 15.8914 72.196 15.8914C71.4674 15.8914 70.7927 15.7497 70.172 15.4663C69.5648 15.183 69.0319 14.7917 68.5731 14.2924C68.1278 13.7932 67.777 13.213 67.5206 12.5518C67.2778 11.8772 67.1563 11.1553 67.1563 10.3862ZM75.4748 11.803V9.273C75.3399 8.8817 75.124 8.53088 74.8271 8.22054C74.5303 7.9102 74.1997 7.66733 73.8354 7.49192C73.4711 7.30301 73.1068 7.20856 72.7425 7.20856C72.3242 7.20856 71.9464 7.29627 71.609 7.47168C71.2717 7.64709 70.9749 7.88321 70.7185 8.18006C70.4756 8.47691 70.2867 8.82098 70.1518 9.21228C70.0303 9.60358 69.9696 10.0151 69.9696 10.4469C69.9696 10.8787 70.0371 11.2902 70.172 11.6815C70.3204 12.0593 70.5296 12.3899 70.7995 12.6733C71.0693 12.9566 71.3797 13.1792 71.7305 13.3412C72.0948 13.5031 72.4861 13.584 72.9044 13.584C73.1607 13.584 73.4171 13.5436 73.6735 13.4626C73.9433 13.3682 74.193 13.2467 74.4223 13.0983C74.6652 12.9364 74.8744 12.7475 75.0498 12.5316C75.2387 12.3022 75.3803 12.0593 75.4748 11.803Z" fill="#299D6B"/>
<path d="M81.0726 15.689V1.31883H90.7269V3.76782H83.8657V7.47168H89.5733V9.73851H83.8657V15.689H81.0726Z" fill="#299D6B"/>
<path d="M92.4112 0.914039H95.1234V12.2887C95.1234 12.7745 95.2043 13.105 95.3662 13.2804C95.5282 13.4424 95.7508 13.5233 96.0341 13.5233C96.25 13.5233 96.4727 13.4963 96.702 13.4424C96.9314 13.3884 97.1338 13.3209 97.3092 13.24L97.6736 15.3044C97.3092 15.4798 96.8842 15.6147 96.3985 15.7092C95.9127 15.8037 95.4742 15.8509 95.0829 15.8509C94.2328 15.8509 93.5717 15.6282 93.0994 15.183C92.6406 14.7242 92.4112 14.0765 92.4112 13.24V0.914039Z" fill="#299D6B"/>
<path d="M98.8552 15.689V5.0834H101.567V15.689H98.8552ZM98.8552 3.60591V0.914039H101.567V3.60591H98.8552Z" fill="#299D6B"/>
<path d="M110.369 15.8914C109.546 15.8914 108.817 15.7092 108.183 15.3449C107.563 14.9671 107.077 14.4611 106.726 13.8269V20H104.014V5.0834H106.382V6.90497C106.787 6.28428 107.299 5.79853 107.92 5.44771C108.541 5.0834 109.249 4.90124 110.045 4.90124C110.76 4.90124 111.415 5.04292 112.009 5.32628C112.616 5.60963 113.142 6.00768 113.587 6.52041C114.033 7.01966 114.377 7.59986 114.619 8.26102C114.876 8.90869 115.004 9.61033 115.004 10.3659C115.004 11.3914 114.802 12.3224 114.397 13.159C114.006 13.9956 113.459 14.6635 112.757 15.1627C112.069 15.6485 111.273 15.8914 110.369 15.8914ZM109.458 13.584C109.877 13.584 110.254 13.4963 110.592 13.3209C110.929 13.1455 111.219 12.9094 111.462 12.6125C111.718 12.3022 111.907 11.9581 112.029 11.5803C112.164 11.189 112.231 10.7842 112.231 10.3659C112.231 9.92067 112.157 9.50913 112.009 9.13133C111.874 8.75352 111.671 8.42294 111.401 8.13958C111.132 7.84274 110.814 7.61335 110.45 7.45144C110.099 7.28952 109.715 7.20856 109.296 7.20856C109.04 7.20856 108.777 7.25579 108.507 7.35024C108.251 7.4312 108.001 7.55263 107.758 7.71455C107.515 7.87647 107.299 8.06537 107.111 8.28126C106.935 8.49715 106.807 8.73328 106.726 8.98965V11.4791C106.888 11.8704 107.104 12.228 107.374 12.5518C107.657 12.8757 107.981 13.132 108.345 13.3209C108.71 13.4963 109.081 13.584 109.458 13.584Z" fill="#299D6B"/>
<path d="M6.26938 0.504132C7.1682 -0.256007 8.51299 -0.14387 9.27313 0.754942L12.1716 4.1807L15.0495 0.772064C15.8088 -0.127605 17.1536 -0.2406 18.0532 0.518682C18.9529 1.27796 19.0659 2.62276 18.3066 3.52243L13.7903 8.87251C13.031 9.77217 11.6862 9.88516 10.7866 9.12588C10.6196 8.98464 10.4801 8.82371 10.368 8.64909L6.01943 3.50873C5.25929 2.60992 5.37143 1.26513 6.27024 0.504988L6.26938 0.504132Z" fill="#42CFCF"/>
<path d="M22.3039 4.37668C23.177 5.16593 23.2447 6.51415 22.4554 7.38728L19.4457 10.7155L23.207 13.114C24.1991 13.7466 24.491 15.0648 23.8584 16.057C23.2258 17.0499 21.9076 17.341 20.9155 16.7084L15.0124 12.9445C14.0203 12.3119 13.7284 10.9937 14.361 10.0015C14.4783 9.8175 14.6195 9.65742 14.7779 9.52303L19.2933 4.52905C20.0826 3.65592 21.4308 3.5883 22.3039 4.37754V4.37668Z" fill="#FFCF41"/>
<path d="M1.88875 4.37684C1.01562 5.16608 0.947996 6.5143 1.73724 7.38743L4.74698 10.7156L0.98566 13.1142C-0.00645748 13.7467 -0.298358 15.065 0.334235 16.0571C0.966828 17.0501 2.28509 17.3411 3.2772 16.7085L9.18026 12.9447C10.1724 12.3121 10.4643 10.9938 9.83169 10.0017C9.71441 9.81765 9.57317 9.65757 9.41481 9.52318L4.89935 4.52921C4.1101 3.65608 2.76189 3.58845 1.88875 4.3777V4.37684Z" fill="#5C6AE4"/>
</svg>
