<svg viewBox="0 0 200 200" fill="none" xmlns="http://www.w3.org/2000/svg">
  <!-- Background circle -->
  <circle cx="100" cy="100" r="90" fill="#E3F2FD" opacity="0.3"/>
  
  <!-- Clipboard base -->
  <rect x="55" y="40" width="90" height="120" rx="8" fill="#5B9EDE" stroke="#2C5282" stroke-width="2"/>
  
  <!-- Clipboard clip -->
  <rect x="85" y="30" width="30" height="20" rx="4" fill="#2C5282"/>
  <circle cx="100" cy="40" r="3" fill="#E3F2FD"/>
  
  <!-- Paper on clipboard -->
  <rect x="65" y="55" width="70" height="95" rx="4" fill="white"/>
  
  <!-- Lines on paper -->
  <rect x="75" y="70" width="50" height="3" rx="1.5" fill="#CBD5E0"/>
  <rect x="75" y="80" width="45" height="3" rx="1.5" fill="#CBD5E0"/>
  <rect x="75" y="90" width="50" height="3" rx="1.5" fill="#CBD5E0"/>
  <rect x="75" y="100" width="40" height="3" rx="1.5" fill="#CBD5E0"/>
  <rect x="75" y="110" width="50" height="3" rx="1.5" fill="#CBD5E0"/>
  <rect x="75" y="120" width="35" height="3" rx="1.5" fill="#CBD5E0"/>
  
  <!-- Stethoscope -->
  <path d="M50 95 Q45 90 45 85 Q45 80 50 80 Q55 80 55 85 L55 100 Q55 110 65 115 L85 125" 
        stroke="#2C5282" stroke-width="3" stroke-linecap="round" fill="none"/>
  <circle cx="50" cy="82" r="6" fill="#5B9EDE" stroke="#2C5282" stroke-width="2"/>
  <circle cx="88" cy="127" r="8" fill="#5B9EDE" stroke="#2C5282" stroke-width="2"/>
  
  <!-- Export arrow -->
  <circle cx="140" cy="140" r="20" fill="#4CAF50"/>
  <path d="M140 130 L140 145 M133 138 L140 145 L147 138" 
        stroke="white" stroke-width="3" stroke-linecap="round" stroke-linejoin="round"/>
  <rect x="130" y="148" width="20" height="2" rx="1" fill="white"/>
</svg>