<svg xmlns="http://www.w3.org/2000/svg" width="1536" height="1024" viewBox="0 0 1536 1024"><path d="M1010.97 563.516c-12.453-3.981-20.398-17.795-18.04-31.364.54-3.109 1.701-16.452 2.58-29.652.912-13.676 4.383-46.153 8.07-75.5 3.56-28.325 6.312-52.4 6.118-53.5-.567-3.21-32.092 61.8-55.752 114.97-14.112 31.713-16.444 35.145-25.754 37.89-11.55 3.408-24.624-2.65-29.825-13.82-3.76-8.075-3.222-12.85 3.218-28.54 3.048-7.425 12.004-29.7 19.9-49.5 13.68-34.296 32.75-81.004 42.961-105.218 4.233-10.038 5.385-11.826 10.957-17 3.611-3.353 9.456-7.377 13.912-9.58 4.227-2.088 7.685-4.171 7.685-4.628s-2.497-2.55-5.55-4.653c-5.275-3.633-5.708-3.756-8.75-2.497-9.04 3.742-13.675 5.014-18.383 5.043-4.05.026-11.475 2.344-34 10.618-15.85 5.821-49.742 18.152-75.317 27.402-81.165 29.355-88.252 32.047-91.433 34.73-10.06 8.484-25.566 6.958-32.558-3.203-9.176-13.338-3.114-29.56 12.745-34.108 3.16-.907 17.221-6.941 31.246-13.41a10400 10400 0 0 1 130.5-59.06c21.45-9.522 41.132-18.764 43.738-20.539 2.606-1.774 6.941-3.699 9.634-4.276 3.213-.69 42.492-1.126 114.262-1.271 60.151-.122 112.577-.397 116.5-.613l7.135-.392.627-3.92c.357-2.235 1.876-5.317 3.533-7.172l2.907-3.253h23.332c21.691 0 23.578.144 26.832 2.044 1.925 1.124 4.4 3.71 5.5 5.747l2 3.704 46.925.003 46.925.003 33.575-14.136c18.466-7.775 39.8-16.775 47.409-20l13.833-5.865h41.917c27.277 0 41.916.35 41.916 1s-14.753 1.002-42.25 1.005l-42.25.005-11 4.608c-6.05 2.535-15.05 6.304-20 8.376s-21.469 9-36.708 15.396l-27.708 11.63-46.725-.26-46.725-.26-2.067-4c-3.606-6.979-5.775-7.497-31.394-7.499l-22.327-.002-2.923 2.923c-2.26 2.261-2.923 3.834-2.923 6.941 0 2.21-.378 4.252-.84 4.537s-53.9.806-118.75 1.157c-70.244.38-119.527 1.03-121.91 1.606-2.2.533-5.8 2.232-8 3.776-2.2 1.545-17.725 8.905-34.5 16.357-66.927 29.73-101.87 45.558-145.447 65.886-9.321 4.348-19.221 8.602-22 9.454-9.015 2.763-10.48 3.54-13.988 7.424-6.384 7.066-7.019 16.679-1.658 25.132 6.278 9.9 20.312 11.515 30.514 3.513 3.9-3.059 7.396-4.377 118.079-44.523 19.8-7.182 45.875-16.686 57.945-21.12 17.638-6.48 23.036-8.063 27.5-8.063 4.095-.001 7.222-.79 11.895-3 3.487-1.65 6.89-3 7.562-3 1.786 0 13.599 8.993 13.593 10.349-.003.633-4.165 3.27-9.25 5.86-6.166 3.14-10.999 6.486-14.51 10.047-4.846 4.913-5.991 7.093-14.338 27.292-15.898 38.474-22.753 55.281-34.036 83.452-18.73 46.766-24.638 61.332-26.766 66-2.785 6.11-2.845 16.61-.124 21.943 2.495 4.89 8.128 9.562 13.901 11.53 8.895 3.03 16.7 1.345 22.628-4.886 3.072-3.229 6.19-9.178 13.437-25.645C971.476 445.008 1008.953 367 1010.924 367c.592 0 1.074 1.238 1.072 2.75 0 3.161-3.11 29.056-8.908 74.25-2.223 17.325-4.721 41.175-5.552 53s-2.03 26.48-2.665 32.565c-1.028 9.85-.962 11.645.598 16.342.964 2.901 3.162 6.88 4.884 8.843 11.32 12.892 35.47 10.059 42.362-4.97 1.62-3.536 2.18-8.366 3.217-27.78.69-12.925 1.63-23.894 2.088-24.376.475-.5 4.186-.408 8.656.215 4.303.6 14.799 2.026 23.324 3.17 18.482 2.48 19.992 2.986 20.022 6.72.029 3.662 3.12 10.224 6.11 12.973 9.412 8.653 25.733 6.11 31.463-4.902 1.862-3.58 1.789-12.157-.136-15.879-.847-1.639-1.268-3.42-.935-3.96 1.484-2.4 66.734-51.833 85.986-65.14l11.01-7.612 9.818-.354 9.818-.355 3.48-4c1.915-2.2 3.923-4.563 4.462-5.25.766-.976 14.523-1.25 62.741-1.25 34.72 0 62.177.39 62.711.89.522.49 9.725 5.96 20.45 12.157s23.659 13.672 28.741 16.61l9.242 5.343h44.508c29.006 0 44.509.348 44.509 1s-15.387 1-44.16 1h-44.162l-30.361-17.5-30.362-17.5h-122.203l-3.934 4.469c-4.606 5.233-8.247 6.517-18.495 6.525l-7.177.006-17.83 12.75c-19.375 13.854-74.453 55.506-76.232 57.65-.808.973-.7 2.276.409 4.93 6.18 14.79-8.272 30.562-24.449 26.681-8.367-2.007-15.07-9.312-16.385-17.855-.283-1.84-.678-3.508-.878-3.708-.762-.761-47.747-6.815-48.335-6.227-.34.34-1.08 9.992-1.642 21.449-1.139 23.16-2.309 29.11-6.79 34.517-6.217 7.502-20.363 11.424-30.045 8.33zm-1.664-6.05c-8.146-4.06-13.218-13.893-11.776-22.829.967-5.991 5.934-13.238 11.179-16.312 3.595-2.107 5.799-2.627 11.35-2.678 6.086-.056 7.383.285 11.137 2.923 6.842 4.81 10.14 10.342 10.616 17.813.502 7.89-1.97 14.11-7.191 18.093-7.89 6.018-17.064 7.101-25.315 2.99m17.727-7.983c3.6-1.862 6.24-6.719 6.24-11.483 0-8.085-5.327-13-14.088-13-13.2 0-18.123 17.19-6.886 24.04 3.857 2.353 10.646 2.557 14.734.443m-12.734-3.986c-3.42-2.395-4.746-7.731-2.84-11.419 4.82-9.319 17.63-6.478 17.904 3.97.088 3.377-.412 4.597-2.683 6.55-3.255 2.8-9.065 3.222-12.381.899M912.5 521.165c-5.093-2.42-7.851-5.444-10.566-11.581-3.764-8.51-.593-19.134 7.263-24.333 3.561-2.357 5.18-2.751 11.303-2.751 6.127 0 7.74.393 11.314 2.759 9.337 6.178 12.092 16.56 6.997 26.363-5.118 9.843-16.781 14.074-26.311 9.543m16.638-8.997c2.669-2.385 3.242-3.71 3.63-8.39.436-5.25.266-5.77-3.076-9.418-3.179-3.468-4.033-3.86-8.41-3.86-6 0-9.912 2.37-11.946 7.24-2.063 4.936-.957 9.839 3.143 13.939 2.89 2.89 3.98 3.321 8.405 3.321 4.17 0 5.655-.51 8.254-2.832m-11.781-1.16c-3.062-1.235-5.357-4.937-5.357-8.642 0-2.333.826-3.883 3.077-5.777 4.948-4.164 10.539-3.167 13.413 2.391 2.205 4.264 1.897 5.833-1.89 9.62-3.454 3.454-5.398 3.96-9.243 2.408m121.817 8.678c-2.308-2.458-2.67-5.789-1.53-14.099.593-4.333.842-4.67 3.25-4.39 2.067.24 2.677.923 2.948 3.303.478 4.19-.855 17.5-1.753 17.5-.407 0-1.719-1.041-2.915-2.314M1028 512.712c-2.844-1.43-3.662-5.44-2.215-10.858.736-2.76 1.322-3.304 3.301-3.072 4.394.514 5.356 2.478 4.333 8.848-1.01 6.29-1.71 6.946-5.419 5.082m-16.555-8.462c1.095-12.481 1.176-12.586 7.079-9.103l3.638 2.146-.692 6.104c-.381 3.357-1.148 6.666-1.704 7.353-.556.688-2.809 1.25-5.006 1.25h-3.995zm99.055-1.194c-4.443-1.05-6.876-2.582-10.308-6.49-7.347-8.367-6.648-20.008 1.72-28.644 11.178-11.537 27.235-7.572 33.127 8.181 2.61 6.98 2.198 10.555-1.974 17.133-4.713 7.432-14.55 11.713-22.565 9.82m10.206-9.53c7.004-2.01 9.8-13.393 4.761-19.383-2.875-3.416-8.43-5.62-11.943-4.738-3.737.938-8.281 5.33-9.577 9.256-2.267 6.87 2.064 14.317 9.066 15.59 2.588.47 3.985.339 7.693-.725m-10.783-5.45c-3.711-3.71-3.908-8.182-.51-11.58 4.956-4.956 10.78-3.867 14.515 2.714 2.736 4.82-2.558 11.79-8.955 11.79-1.17 0-3.442-1.315-5.05-2.923m-38.923 8.84c-38.963-5.714-44.243-7.528-50.827-17.468-2.633-3.976-3.173-5.761-3.173-10.494 0-10.618 4.343-18.281 12.5-22.058 5.467-2.531 13.964-2.468 19.039.14 2.178 1.121 4.81 1.822 5.847 1.559 1.81-.46 22.249 3.982 31.614 6.87 2.475.763 7.088 2.108 10.25 2.989 6.241 1.739 7.272 3.503 3.494 5.978-1.731 1.134-3.188 1.262-6.25.55-2.197-.512-10.227-2.293-17.846-3.96s-14.255-3.28-14.75-3.585-.898.356-.898 1.469.862 2.485 1.915 3.049c2.054 1.099 27.764 7.045 30.463 7.045.892 0 1.622.478 1.622 1.062 0 1.874-3.207 10.939-3.865 10.923-.35-.008-3.416-.67-6.815-1.472-10.355-2.442-20.722-4.511-22.601-4.512-1.633 0-3.506 2.545-2.565 3.486.22.22 7.139 1.81 15.373 3.533 8.235 1.722 15.638 3.477 16.451 3.9s1.756 2.127 2.095 3.785 1.362 4.078 2.272 5.377c2.414 3.446 2.074 4.935-1.095 4.805-1.513-.062-11.525-1.4-22.25-2.972m-27.684-17.041c6.07-3.126 9.506-9.856 8.16-15.983-1.589-7.236-10.013-12.19-16.876-9.925-1.799.594-4.544 2.409-6.1 4.034-3.854 4.022-4.58 11.957-1.536 16.806 3.3 5.257 11.22 7.711 16.352 5.068m-9.951-4.044c-5.22-2.527-6.156-10.767-1.729-15.195 3.79-3.788 9.487-3.667 13.44.287 7.664 7.663-1.799 19.707-11.711 14.908m-90.5 16.668-1.618-4.5 4.24-9.25c2.331-5.087 6.94-14.874 10.24-21.749 6.918-14.411 9.537-19.977 20.705-44 8.993-19.346 10.216-21.71 10.854-20.992.24.27.723 3.037 1.073 6.148.628 5.585.53 5.871-7.97 23-7.468 15.052-29.572 63.193-33.332 72.594-.715 1.788-1.586 3.25-1.936 3.25s-1.365-2.025-2.255-4.5M1140.7 480.75c-.564-6.103-.504-6.309 2.578-8.75 7.32-5.8 34.906-25.736 43.19-31.213l8.968-5.93 2.672 3.276c1.47 1.8 2.473 3.745 2.229 4.32s-9.083 7.455-19.64 15.287c-10.559 7.832-23.445 17.62-28.637 21.75s-9.742 7.51-10.11 7.51c-.37 0-.932-2.812-1.25-6.25M933 481.812c-1.925-1.2-3.669-2.305-3.875-2.456-.75-.546 3.423-10.028 24.14-54.856 23.5-50.851 25.93-56.011 26.829-56.951.997-1.044 8.906 6.054 8.906 7.992 0 1.145-12.307 28.772-17.832 40.03-1.639 3.34-5.246 10.99-8.017 17-16.11 34.948-24.009 50.957-25.25 51.176-.77.136-2.976-.735-4.901-1.935m-25-1.6c0-1.956 14.033-31.525 35.577-74.962 17.798-35.885 23.864-47.25 25.217-47.25.98 0 3.253 1.237 5.051 2.75l3.27 2.75-5.936 13c-3.266 7.15-10.09 22-15.167 33-5.076 11-12.473 27.2-16.436 36-3.964 8.8-8.92 19.655-11.015 24.122l-3.809 8.123-5.991.543c-3.296.299-6.48 1.031-7.077 1.628-1.256 1.256-3.684 1.452-3.684.297m225.703-14.004c-2.037-2.086-3.703-4.159-3.703-4.606 0-.927-.581-.448 22.924-18.898 9.667-7.588 20.83-16.507 24.806-19.821s7.66-5.76 8.185-5.435c.525.324 2.355 3.169 4.067 6.32l3.111 5.732-2.41 2c-1.326 1.1-7.31 5.468-13.297 9.706s-17.28 12.45-25.095 18.25S1137.93 470 1137.744 470s-2.004-1.706-4.041-3.792M1120 458.053c-7.436-.914-9.124.909 25.514-27.553a6573 6573 0 0 0 23.904-19.726c4.445-3.7 8.576-6.737 9.18-6.75 1.254-.027 4.814 7.299 4.264 8.777-.199.537-8.912 7.617-19.362 15.734s-22.375 17.546-26.5 20.954c-10.364 8.563-11.667 9.22-17 8.564m-51.527-9.917c-6.065-1.508-11.634-3.118-12.376-3.576-1.495-.924-1.503-.777 2.019-38.06 1.142-12.1 2.462-22.406 2.933-22.902 1.175-1.24 2.175 1.469 6.977 18.902 2.272 8.25 6.538 22.184 9.479 30.965s5.129 16.318 4.862 16.75c-.69 1.116-1.59.982-13.894-2.079m12.265-.386c-2.593-6.816-11.279-34.1-14.325-45-2.114-7.563-4.12-13.75-4.459-13.75-.628 0-3.475 27.9-4.61 45.177l-.63 9.585 10.393 2.55c11.998 2.945 14.297 3.187 13.631 1.438m-60.275-4c.304-1.788 1.483-10.435 2.62-19.216 1.136-8.781 2.284-16.319 2.55-16.75.834-1.348 2.057-.876 5.092 1.966l2.936 2.75-1.744 15c-2.045 17.578-1.605 15.5-3.282 15.5-.751 0-2.51.9-3.908 2-3.708 2.917-4.914 2.564-4.264-1.25m435.018-.781c-.336-.543.786-1.771 2.493-2.728s7.118-4.329 12.024-7.491c4.907-3.163 9.728-5.75 10.715-5.75s5.578 2.7 10.204 6 9.043 6 9.816 6 5.204-2.7 9.847-6c4.644-3.3 8.66-6 8.926-6 .265 0 4.085 2.359 8.488 5.241 7.277 4.764 8.006 5.536 8.006 8.475v3.234l-39.955.003c-25.219.002-40.18-.361-40.564-.984m-419.826-2.719c-.255-.412.137-4.8.87-9.75.734-4.95 1.478-10.8 1.654-13 .39-4.856 3.235-5.864 6.467-2.292 1.937 2.142 2.015 2.915 1.196 11.792-1.313 14.224-1.22 14-5.802 14-2.157 0-4.13-.337-4.385-.75m89.898-.426c-1.512-4.538-13.553-50.173-13.553-51.365 0-2.396 1.658-1.732 10.088 4.041 9.373 6.42 7.781 6.244 36.275 4.004 10.375-.815 19.262-1.236 19.75-.934s.866 1.084.841 1.739c-.05 1.305-49.528 42.99-51.649 43.515-.721.178-1.51-.272-1.752-1m26.77-20.997a16768 16768 0 0 1 24.594-20.5c1.655-1.3-3.422-1.278-22.075.092-11.738.863-22.467 1.279-23.842.924s-5.65-2.848-9.5-5.54c-4.463-3.122-7.1-4.427-7.274-3.6-.15.713 1.342 7.147 3.316 14.297s4.71 17.275 6.08 22.5c3.052 11.642 3.169 12 3.919 12 .332 0 11.483-9.078 24.781-20.173M1425.5 432.13c-7.15-4.252-16.825-9.9-21.5-12.55s-9.881-5.85-11.57-7.112l-3.07-2.295.21-88.176c.114-48.496.596-88.513 1.07-88.926.473-.413 2.435-1.347 4.36-2.077s8.609-3.726 14.852-6.66 11.516-5.334 11.716-5.334 4.481-2.02 9.514-4.487 9.523-4.257 9.979-3.975c.455.28.74 51.906.633 114.723-.171 100.67-.372 114.234-1.694 114.406-.825.107-7.35-3.285-14.5-7.537m24.978 6.663c-.271-.711-.377-52.818-.235-115.793l.257-114.5 42.75-.26 42.75-.261V230l-22.75.088c-29.803.114-32.013.424-35.024 4.9-2.278 3.385-2.338 4.01-2.037 21.334l.311 17.847 3.266 2.915 3.266 2.916H1536v76.059c0 60.57-.255 75.91-1.25 75.328-.687-.402-4.264-2.678-7.947-5.059-3.683-2.38-7.175-4.328-7.76-4.328-1.001 0-7.713 4.43-14.637 9.662-1.702 1.286-3.653 2.338-4.335 2.338s-5.26-2.78-10.17-6.178l-8.93-6.178-3.236 1.672c-1.78.92-7.735 4.62-13.235 8.22-13.475 8.825-13.433 8.803-14.022 7.257m31.315-51.044c.683-.823.94-11.984.751-32.612-.3-32.687-.425-33.592-4.544-32.872-1.29.225-1.537 4.737-1.764 32.24-.146 17.588-.047 32.544.218 33.236.623 1.622 3.996 1.627 5.34.008zm16.707-32.263c0-31.32-.042-31.986-2-31.986-1.951 0-2.006.755-2.265 30.99-.145 17.045-.034 31.59.247 32.324s1.3 1.182 2.265.996c1.627-.313 1.753-2.635 1.753-32.324m16.264-.236c-.228-28.327-.467-32.75-1.764-32.75s-1.536 4.283-1.765 31.49c-.145 17.32-.047 32.058.219 32.75s1.179 1.26 2.028 1.26c1.368 0 1.515-3.767 1.282-32.75M1207.315 419c-4.822-1.957-4.652 2.344-4.453-112.75L1203 226l2.122-2.122c2.063-2.063 2.716-2.109 23.25-1.628 11.62.273 21.888.816 22.818 1.207.93.39 2.472 1.904 3.427 3.361 1.61 2.46 1.755 9.123 2 92.166.145 49.234-.057 91.05-.45 92.925-1.4 6.7-3.422 7.29-26.315 7.653-11.194.178-21.335-.075-22.537-.563m28.568-21.63c8.385-5.873 4.16-19.643-6.026-19.643-3.511 0-4.719.554-7.154 3.28-2.622 2.934-2.88 3.809-2.445 8.327.373 3.881 1.106 5.582 3.17 7.357 3.212 2.764 9.026 3.08 12.455.678m-10.502-3.898c-2.059-2.059-2.406-3.125-1.874-5.75.74-3.652 3.777-6.722 6.65-6.722 2.774 0 6.843 4.459 6.843 7.5 0 3.115-4.092 7.5-7 7.5-1.15 0-3.228-1.138-4.619-2.528m12.369-33.046c4.562-5.145 1.684-15.884-4.81-17.945-3.045-.967-8.687 1.355-10.923 4.495-3.233 4.54-2.683 9.558 1.507 13.748 3.243 3.243 3.862 3.473 7.75 2.882 2.704-.41 5.037-1.556 6.476-3.18m-10.002-.656c-4.867-1.659-5.198-10.121-.498-12.738 2.47-1.376 3.03-1.376 5.487-.001 7.78 4.352 3.378 15.591-4.989 12.74m9.329-33.693c6.426-6.426 2.172-18.077-6.6-18.077-5.457 0-10.477 5.26-10.477 10.977 0 5.872 4.142 10.023 10 10.023 3.258 0 4.784-.63 7.077-2.923m-10.382-1.188c-3.814-2.219-4.052-9.77-.382-12.103 2.223-1.414 6.682-.791 8.687 1.214 2.703 2.703 2.519 6.572-.454 9.545-2.629 2.629-4.958 3.027-7.851 1.344m10.382-32.812c2.336-2.336 2.923-3.798 2.923-7.278 0-5.237-2.09-8.52-6.63-10.418-2.897-1.21-3.842-1.21-6.74 0-6.26 2.616-8.433 9.23-5.13 15.619 1.925 3.722 4.074 4.932 8.827 4.97 2.92.023 4.519-.662 6.75-2.893m-10.42-2.132c-5.119-4.027-2.863-12.278 3.357-12.278 5.894 0 9.054 6.72 5.236 11.135q-4.066 4.705-8.593 1.143m9.674-28.99c6.222-4.895 4.885-14.638-2.504-18.25-3.303-1.615-4.02-1.65-7.12-.356-6.378 2.665-8.527 9.231-5.155 15.752 2.618 5.063 10.127 6.513 14.779 2.854m-10.524-3.705c-3.653-4.253-2.665-9.238 2.232-11.266 6.503-2.694 11.989 5.988 6.961 11.016-2.467 2.467-7.179 2.595-9.193.25M670.5 405.226c-5.855-2.055-8.65-3.877-11.49-7.486-8.64-10.983-5.892-27.355 5.765-34.356 6.29-3.778 10.92-4.643 17.407-3.252 9.2 1.973 16.984 10.26 18.396 19.583 2.533 16.724-14.34 31.036-30.078 25.511m12.936-1.314c9.283-2.338 15.52-10.741 15.52-20.912 0-13.601-10.82-23.235-24.308-21.643-18.168 2.145-25.84 24.261-12.826 36.97 6.188 6.042 12.906 7.778 21.614 5.585m443.537-11.619c-1.36-.938-5.848-4.47-9.973-7.846s-15.6-12.148-25.5-19.492c-31.544-23.397-87.957-67.172-101.858-79.039-.472-.402.653-3.801 2.5-7.553 2.908-5.908 3.358-7.828 3.358-14.342 0-6.642-.38-8.191-3.25-13.256-1.787-3.154-3.25-6.028-3.25-6.387 0-.358 28.913-.373 64.25-.032 65.034.626 119.488 2.992 121.787 5.291.62.62.923 5.018.751 10.912l-.288 9.873-3.5.718c-1.925.395-10.56 1.037-19.188 1.426l-15.689.707-3.43-3.637c-2.659-2.819-4.206-3.636-6.887-3.636-6.053 0-10.14 6.518-7.405 11.81 2.914 5.634 9.702 6.182 15.099 1.217 1.732-1.593 4.573-1.936 21.17-2.558l19.17-.718.637 4.375c.35 2.406.498 9.1.33 14.874l-.307 10.5-4.5.675c-2.475.37-11.355 1.003-19.734 1.404l-15.235.73-2.147-2.729c-2.875-3.656-6.06-4.763-9.877-3.433-6.627 2.31-7.627 11.285-1.662 14.922 4.586 2.796 7.448 2.43 11.076-1.416l3.157-3.348 16.461-.777c9.054-.427 17.811-.833 19.461-.902l3-.126.277 15.365c.17 9.476-.118 15.84-.752 16.605-.615.74-4.95 1.487-10.777 1.855-5.361.339-13.885.919-18.941 1.29l-9.193.674-2.546-3.026c-1.4-1.664-3.638-3.234-4.973-3.49-3.776-.721-8.1 1.616-9.575 5.179-1.137 2.745-1.092 3.674.324 6.642 1.789 3.752 5.682 5.829 9.038 4.821 1.165-.35 3.468-1.884 5.118-3.41 2.827-2.614 3.693-2.81 15-3.41 6.6-.35 15.488-.91 19.75-1.245l7.75-.608v43.167l-3.25.48c-5.014.741-32.638 2.632-38.277 2.621-3.093-.006-5.98-.667-7.5-1.716m141.586-.535c-.515-2.405-.848-11.514-2.585-70.758-.604-20.625-1.438-48.075-1.853-61s-.564-24.062-.331-24.75c.333-.982 13.397-1.25 60.823-1.25h60.399l-.256 79.75-.256 79.75-57.729.258-57.729.258zm-541.227-3.717c-9.833-2.342-19.265-11.72-22.5-22.368-1.87-6.16-1.99-7.717-1.004-13.023 1.22-6.563 3.085-9.281 5.682-8.285 1.386.532 1.525 1.35.828 4.887-1.44 7.3-.74 14.02 2.027 19.482 4.632 9.14 14.808 15.061 23.496 13.672 3.733-.597 4.139-.458 4.139 1.41 0 4.22-5.286 5.983-12.668 4.225m10.423-2.791c.291-.884-1.005-1.253-4.422-1.26-9.951-.02-20.385-7.823-23.779-17.785-1.768-5.19-2.036-13.806-.55-17.714.852-2.242.748-2.59-.687-2.313-4.248.817-4.272 16.057-.04 24.341 3.5 6.851 9.865 12.68 16.464 15.075 4.49 1.63 12.433 1.42 13.014-.344m4.711-16.65c-4.321-1.883-9.111-6.994-10.501-11.207-2.522-7.642 1.63-16.567 9.476-20.365 9.308-4.505 19.623-.16 22.975 9.68 2.844 8.345 1.607 13.57-4.411 18.634-5.156 4.339-12.098 5.628-17.539 3.258m14.43-9.135c5.593-6.37 3.443-14.878-4.415-17.471-4.772-1.575-8.924-.444-12.061 3.283-2.24 2.662-2.558 3.807-2.125 7.645.7 6.221 4.955 10.078 11.117 10.078 3.763 0 4.819-.499 7.484-3.535M744 357c-4.104-4.104-1.345-11 4.402-11 4.063 0 6.598 2.602 6.598 6.772 0 5.578-6.97 8.257-11 4.228m26.603 2.27c-1.086-1.086-.632-6.003.647-7.005 1.2-.94 68.582-27.997 89.25-35.837 5.5-2.086 22.375-8.699 37.5-14.695C930.056 289.026 940.836 285 942.81 285c.784 0 2.904 1.298 4.711 2.884 1.807 1.587 3.858 3.076 4.56 3.31 2.75.916-.599 2.745-14.306 7.814-7.851 2.903-21.925 8.117-31.275 11.587s-32.75 11.985-52 18.924c-33.15 11.948-74.874 27.128-80.647 29.34-1.456.557-2.919.742-3.25.41m-2.442-14.817c-.639-1.4-1.161-3.004-1.161-3.563 0-.558 3.038-2.372 6.75-4.03 3.713-1.66 8.55-3.853 10.75-4.876 7.899-3.671 60.353-25.887 77.5-32.822 9.625-3.894 22.225-9.074 28-11.513C921.765 274.233 934.408 269 935.051 269c1.148 0 4.163 10.192 3.264 11.033-.448.42-4.19 2.13-8.315 3.804-15.447 6.263-66.78 26.495-74 29.165-20.188 7.465-50.406 19.564-72.29 28.944-6.485 2.78-12.376 5.054-13.09 5.054s-1.821-1.146-2.46-2.547m-8.079-10.533c-3.308-2.754-2.501-3.366 14.418-10.938 7.7-3.447 25.025-11.325 38.5-17.507 32.022-14.692 58.832-26.741 89-40 13.475-5.921 27.325-12.113 30.777-13.76s6.457-2.815 6.675-2.596c.617.617-2.886 12.722-3.98 13.751-.534.504-6.597 3.193-13.472 5.976s-18.8 7.82-26.5 11.192c-7.7 3.373-18.725 8.065-24.5 10.427s-19.05 8.004-29.5 12.538-21.475 9.26-24.5 10.5c-6.502 2.67-21.513 9.112-39.355 16.892-7.07 3.083-13.37 5.59-14 5.572-.63-.019-2.233-.94-3.563-2.047M960.5 290.086c-7.281-1.824-15.12-8.507-17.951-15.304-5.255-12.614 2.332-29.763 15.199-34.355 12.751-4.55 28.954 3.86 32.778 17.014 1.738 5.98.966 13.807-1.902 19.284-4.678 8.933-18.878 15.679-28.124 13.361m13.938-12.637c11.61-7.608 7.487-26.308-6.206-28.145-8.31-1.114-18.232 6.755-18.232 14.46 0 6.34 5.285 14.18 10.5 15.577 3.411.914 11.286-.155 13.938-1.892m-13.342-2.714c-8.833-4.54-8.43-16.609.684-20.416 7.45-3.113 15.22 2.04 15.22 10.093 0 5.022-2.143 8.332-6.599 10.194-4.083 1.706-6.18 1.735-9.305.13m532.297-20.153c-.294-.765-.39-2.897-.214-4.737l.321-3.345 21.25-.27 21.25-.27v4.52c0 4.41-.079 4.523-3.25 4.633-26.551.927-38.861.76-39.357-.53" style="fill:#fcb071"/><path d="M1008.493 560.649c-6.324-2.945-10.781-7.99-13.024-14.742-1.56-4.697-1.626-6.492-.598-16.342.635-6.086 1.834-20.74 2.665-32.565.83-11.825 3.329-35.675 5.552-53 5.797-45.194 8.904-71.089 8.908-74.25 0-1.512-.48-2.75-1.072-2.75-1.971 0-39.448 78.008-60.987 126.941-7.248 16.467-10.365 22.417-13.437 25.646-5.928 6.231-13.733 7.916-22.628 4.885-5.773-1.967-11.406-6.639-13.901-11.529-2.72-5.333-2.661-15.833.124-21.943 2.128-4.669 8.035-19.234 26.766-66 11.283-28.17 18.138-44.979 34.036-83.452 8.347-20.2 9.492-22.38 14.337-27.292 3.512-3.561 8.345-6.907 14.511-10.048 5.085-2.59 9.248-5.226 9.25-5.86.006-1.355-11.807-10.348-13.593-10.348-.672 0-4.075 1.35-7.562 3-4.673 2.21-7.8 2.999-11.895 3-4.464 0-9.862 1.582-27.5 8.062-12.07 4.434-38.145 13.939-57.945 21.12-110.683 40.147-114.178 41.465-118.079 44.524-10.202 8.002-24.236 6.386-30.514-3.514-5.36-8.452-4.726-18.065 1.658-25.132 3.508-3.883 4.973-4.66 13.988-7.423 2.779-.852 12.679-5.106 22-9.454 43.577-20.328 78.52-36.157 145.447-65.887 16.775-7.451 32.3-14.812 34.5-16.356s5.8-3.244 8-3.776c2.383-.577 51.666-1.226 121.91-1.606 64.85-.351 118.288-.872 118.75-1.157s.84-2.327.84-4.537c0-3.107.662-4.68 2.923-6.94l2.923-2.924 22.327.002c25.62.002 27.788.52 31.394 7.498l2.067 4 46.723.26 46.723.26 26.71-11.186c14.69-6.153 31.885-13.376 38.21-16.051a3469 3469 0 0 1 21-8.794l9.5-3.929 43.25-.28 43.25-.28v17.479l-42.75.26-42.75.261-.254 114.946c-.14 63.22.086 115.286.501 115.702s5.93-2.602 12.255-6.706c6.324-4.104 12.954-8.212 14.733-9.13l3.235-1.668 8.93 6.178c4.912 3.398 9.489 6.178 10.17 6.178.683 0 2.634-1.052 4.336-2.338 6.845-5.172 13.63-9.662 14.601-9.662.566 0 4.62 2.31 9.01 5.134 6.283 4.04 7.983 5.637 7.983 7.5 0 1.301-.192 2.366-.427 2.366s-3.824-2.25-7.977-5c-4.152-2.75-7.78-5-8.061-5-.282 0-4.311 2.7-8.955 6-4.643 3.3-9.074 6-9.847 6s-5.19-2.7-9.816-6-9.217-6-10.204-6-5.808 2.588-10.715 5.75c-4.906 3.163-10.317 6.534-12.024 7.491s-2.829 2.185-2.493 2.729c.386.624 15.237.983 40.315.976 37.324-.01 39.721.095 39.991 1.771.273 1.693-2.034 1.77-45.31 1.504l-45.597-.28-9.19-5.313c-5.054-2.922-17.965-10.383-28.69-16.58s-19.927-11.668-20.45-12.157c-.534-.501-27.991-.891-62.71-.891-48.22 0-61.976.274-62.742 1.25-.54.688-2.547 3.05-4.461 5.25l-3.48 4-9.819.355-9.818.354-11.01 7.611c-19.252 13.308-84.502 62.74-85.986 65.142-.333.538.088 2.32.935 3.959 1.925 3.722 1.998 12.3.136 15.879-5.73 11.012-22.05 13.555-31.463 4.902-2.99-2.749-6.081-9.31-6.11-12.973-.03-3.734-1.54-4.24-20.022-6.72-8.525-1.143-19.02-2.57-23.324-3.17-4.47-.623-8.181-.715-8.656-.215-.458.482-1.397 11.451-2.088 24.376-1.037 19.414-1.596 24.244-3.217 27.78-5.236 11.418-21.768 16.668-34.222 10.869m18.759-2.076c10.126-3.613 15.246-11.416 14.56-22.19-.476-7.47-3.774-13.004-10.616-17.813-3.754-2.638-5.051-2.979-11.137-2.923-5.551.05-7.755.57-11.35 2.678-8.339 4.886-13.087 15.843-10.703 24.697 3.555 13.201 16.517 20.094 29.246 15.551m-14.953-9.533c-11.237-6.85-6.313-24.04 6.885-24.04 6.127 0 10.293 2.087 12.435 6.231 3.358 6.492 1.148 15.287-4.586 18.252-4.088 2.114-10.877 1.91-14.734-.443m14.38-4.441c2.272-1.954 2.772-3.175 2.684-6.55-.274-10.45-13.084-13.29-17.903-3.97-1.907 3.687-.58 9.023 2.839 11.418 3.317 2.323 9.126 1.901 12.38-.898m-94.536-25.163c8.847-6.286 11.856-19.306 6.376-27.586-1.395-2.108-4.412-5.074-6.705-6.591-3.573-2.366-5.187-2.759-11.314-2.759-6.122 0-7.742.394-11.303 2.751-4.696 3.107-7.95 8.67-8.83 15.092-.665 4.848 1.987 12.235 5.932 16.526 6.247 6.796 18.217 7.985 25.844 2.567m-19.664-7.757c-4.1-4.1-5.206-9.003-3.143-13.94 2.034-4.87 5.945-7.239 11.947-7.239 4.376 0 5.23.392 8.409 3.86 3.342 3.648 3.512 4.168 3.076 9.418-.388 4.68-.961 6.005-3.63 8.39-2.6 2.322-4.084 2.832-8.254 2.832-4.425 0-5.515-.43-8.405-3.321M926.6 508.6c3.787-3.787 4.095-5.356 1.89-9.62-2.874-5.558-8.465-6.555-13.413-2.391-6.278 5.283-2.284 15.054 6.273 15.348 1.018.035 3.38-1.467 5.25-3.337m116.907 6.15c1.005-10.75.535-13.187-2.614-13.553-2.407-.28-2.656.057-3.25 4.39-1.139 8.31-.777 11.641 1.531 14.099 1.196 1.272 2.508 2.314 2.915 2.314s1.045-3.263 1.418-7.25m-10.088-7.12c1.023-6.37.06-8.334-4.333-8.848-1.98-.232-2.565.312-3.301 3.072-1.447 5.417-.629 9.428 2.215 10.858 3.708 1.864 4.409 1.207 5.419-5.082m-13.653 3.12c.556-.687 1.323-3.996 1.704-7.353l.692-6.104-3.638-2.146c-5.903-3.483-5.984-3.378-7.079 9.103l-.68 7.75h3.995c2.197 0 4.45-.562 5.006-1.25m106.062-10.455c4.776-2.727 9.78-9.688 10.775-14.99 1.276-6.802-5.23-18.657-12.103-22.053-3.725-1.841-9.452-2.342-13.735-1.201-8.062 2.147-15.787 12.755-15.76 21.642.02 6.104 5.102 14.681 10.382 17.519 6.042 3.247 13.752 2.9 20.44-.917m-12.815-6.044c-10.103-1.837-13.023-14.858-4.87-21.719 3.925-3.301 6.946-3.988 11.271-2.56 5.438 1.794 8.586 6.205 8.586 12.028 0 8.315-6.665 13.764-14.987 12.25m6.896-4.704c3.98-2.058 5.906-7.013 4.02-10.337-3.737-6.58-9.56-7.67-14.515-2.715-3.399 3.4-3.202 7.87.51 11.582 3.253 3.253 5.809 3.63 9.985 1.47M1096 498.723c0-.703-.745-2.341-1.655-3.64-.91-1.3-1.932-3.72-2.271-5.378-.34-1.658-1.282-3.36-2.096-3.784-.813-.424-8.216-2.18-16.45-3.901-8.235-1.723-15.153-3.312-15.374-3.533-.941-.94.932-3.487 2.565-3.486 1.88 0 12.246 2.07 22.6 4.512 3.4.802 6.467 1.464 6.816 1.472.658.016 3.865-9.049 3.865-10.923 0-.584-.73-1.062-1.622-1.062-2.699 0-28.408-5.946-30.463-7.045-1.053-.564-1.915-1.936-1.915-3.05 0-1.112.404-1.773.898-1.468.495.306 7.132 1.919 14.75 3.585 7.619 1.667 15.65 3.448 17.846 3.96 3.062.712 4.519.584 6.25-.55 3.778-2.475 2.747-4.24-3.494-5.978a478 478 0 0 1-10.25-2.99c-9.365-2.887-29.805-7.328-31.614-6.87-1.037.264-3.669-.437-5.847-1.557-5.075-2.61-13.572-2.672-19.039-.141-8.157 3.777-12.5 11.44-12.5 22.058 0 4.733.54 6.518 3.173 10.494 6.584 9.94 11.864 11.754 50.827 17.467 22.95 3.365 25 3.513 25 1.808m-63.73-19.206c-7.631-3.317-9.73-15.296-3.77-21.516 3.89-4.062 8.312-5.398 13.362-4.038 12.278 3.306 13.207 19.859 1.454 25.912-2.906 1.497-7.092 1.361-11.046-.358m10.585-3.942c5.633-2.913 6.73-10.144 2.222-14.652-6.8-6.8-17.178-1.61-16.156 8.077.694 6.572 7.62 9.84 13.934 6.575m-95.798 18.175c3.76-9.401 25.864-57.542 33.333-72.594 8.498-17.129 8.597-17.415 7.969-23-.35-3.11-.833-5.877-1.073-6.148-.638-.719-1.86 1.646-10.854 20.992-11.168 24.023-13.787 29.589-20.705 44-3.3 6.875-7.909 16.662-10.24 21.75l-4.24 9.248 1.619 4.501c.89 2.476 1.905 4.501 2.255 4.501s1.221-1.462 1.936-3.25m205.003-14.26c5.192-4.13 18.078-13.918 28.636-21.75s19.397-14.71 19.64-15.286c.245-.576-.758-2.52-2.228-4.321l-2.673-3.275-8.967 5.93c-8.284 5.476-35.87 25.412-43.19 31.212-3.082 2.441-3.142 2.647-2.578 8.75.318 3.437.88 6.25 1.25 6.25.368 0 4.918-3.38 10.11-7.51M948.708 463.5c5.173-11 11.672-24.918 14.443-30.929s6.378-13.66 8.017-17c5.525-11.258 17.832-38.885 17.832-40.03 0-1.938-7.909-9.036-8.906-7.992-.899.94-3.33 6.1-26.83 56.951-20.716 44.828-24.889 54.31-24.14 54.856 3.253 2.37 7.68 4.585 8.778 4.391.77-.136 5.634-9.247 10.806-20.247m-37.024 16.416c.597-.597 3.781-1.33 7.077-1.628l5.991-.543 3.809-8.123c2.094-4.467 7.051-15.322 11.015-24.122 3.963-8.8 11.36-25 16.436-36s11.901-25.85 15.167-33l5.936-13-3.27-2.75c-1.798-1.512-4.071-2.75-5.051-2.75-1.353 0-7.419 11.365-25.217 47.25C922.033 448.687 908 478.256 908 480.213c0 1.155 2.428.96 3.684-.297m240.607-20.46c7.815-5.8 19.108-14.012 25.095-18.25 5.988-4.238 11.971-8.606 13.297-9.706l2.41-2-3.111-5.731c-1.712-3.152-3.542-5.997-4.067-6.321-.525-.325-4.208 2.12-8.185 5.435s-15.14 12.233-24.806 19.821c-23.505 18.45-22.924 17.97-22.924 18.898 0 .773 7.031 8.398 7.744 8.398.186 0 6.732-4.745 14.547-10.544M1137 449.489c4.125-3.408 16.05-12.837 26.5-20.954s19.163-15.197 19.363-15.734c.549-1.478-3.01-8.804-4.265-8.777-.604.013-4.735 3.05-9.18 6.75a6573 6573 0 0 1-23.904 19.726c-27.933 22.952-30.014 24.747-30.014 25.883 0 .614 2.025 1.366 4.5 1.67 5.333.655 6.636-.001 17-8.564m-54.633.726c.267-.432-1.921-7.97-4.862-16.75s-7.207-22.715-9.48-30.965c-4.801-17.433-5.8-20.142-6.976-18.902-.47.496-1.79 10.802-2.933 22.902-3.522 37.283-3.514 37.136-2.019 38.06 1.335.825 22.299 6.263 24.594 6.38.655.033 1.41-.293 1.676-.725m-57.64-5.215c1.399-1.1 3.157-2 3.908-2 1.677 0 1.237 2.078 3.282-15.5l1.744-15-2.936-2.75c-3.035-2.842-4.258-3.314-5.092-1.966-.266.431-1.414 7.969-2.55 16.75-1.137 8.781-2.316 17.429-2.62 19.216-.65 3.814.556 4.167 4.264 1.25m19.737-6.25c.276-1.237.896-6.525 1.378-11.75.82-8.877.741-9.65-1.196-11.792-3.231-3.572-6.077-2.564-6.467 2.292-.176 2.2-.92 8.05-1.654 13s-1.125 9.338-.87 9.75 2.228.75 4.385.75c3.252 0 4.008-.384 4.424-2.25m109.298-19.25c13.83-11.55 25.167-21.536 25.192-22.191s-.353-1.438-.841-1.74c-.488-.3-9.375.12-19.75.935-28.494 2.24-26.902 2.415-36.275-4.004-8.43-5.773-10.088-6.437-10.088-4.04 0 1.191 12.04 46.826 13.553 51.364.243.728 1.031 1.178 1.752 1s12.627-9.774 26.457-21.324m287.932-94.24c.107-62.816-.178-114.441-.633-114.722-.456-.282-4.946 1.507-9.979 3.975s-9.314 4.487-9.514 4.487-5.472 2.4-11.716 5.334-12.927 5.93-14.852 6.66-3.887 1.664-4.36 2.077-.956 40.43-1.07 88.926l-.21 88.176 3.07 2.295c1.689 1.262 6.895 4.462 11.57 7.112s14.35 8.298 21.5 12.55 13.675 7.644 14.5 7.537c1.322-.172 1.523-13.736 1.694-114.406m-188.865 92.018c1.484-1.107 2.936-3.444 3.339-5.37.392-1.874.594-43.69.449-92.924-.245-83.043-.39-89.707-2-92.166-.955-1.457-2.497-2.97-3.427-3.361s-11.197-.934-22.818-1.207c-20.534-.48-21.187-.435-23.25 1.628L1203 226l-.138 80.25c-.199 115.094-.369 110.793 4.453 112.75 1.202.487 11.343.74 22.537.562 18.358-.292 20.609-.515 22.977-2.284m-29.402-20.587c-2.063-1.775-2.796-3.476-3.169-7.357-.434-4.518-.177-5.393 2.445-8.328 7.66-8.573 21.346.76 16.86 11.499-2.754 6.589-10.888 8.7-16.136 4.186m11.119-3.146c1.35-1.35 2.454-3.62 2.454-5.045 0-3.041-4.069-7.5-6.844-7.5-2.872 0-5.909 3.07-6.65 6.722-.531 2.625-.184 3.691 1.875 5.75 3.185 3.185 6.03 3.208 9.164.073m-11.022-32.821c-4.19-4.19-4.74-9.207-1.507-13.748 2.236-3.14 7.878-5.462 10.923-4.495 3.784 1.2 7.06 6.324 7.06 11.04 0 5.768-2.98 9.213-8.726 10.085-3.888.59-4.507.36-7.75-2.882m12.443-4.01c1.916-3.367.506-7.593-3.23-9.683-2.458-1.375-3.018-1.375-5.487 0-4.7 2.618-4.369 11.08.498 12.74 3.562 1.213 6.386.163 8.219-3.058m-13.044-30.637c-4.322-4.322-4.135-10.065.477-14.677 4.532-4.532 9.45-4.704 13.677-.477 2.393 2.393 2.923 3.767 2.923 7.577 0 6.376-3.928 10.5-10 10.5-3.258 0-4.784-.63-7.077-2.923m11.622-2.532c2.973-2.973 3.158-6.842.455-9.545-2.005-2.005-6.464-2.628-8.687-1.214-2.062 1.31-3.339 6.016-2.344 8.633 1.862 4.896 6.812 5.891 10.576 2.126m-9.795-29.625c-2.499-1.455-4.75-6.265-4.75-10.148 0-4.258 2.367-7.61 6.63-9.391 2.897-1.21 3.842-1.21 6.74 0 4.54 1.897 6.63 5.181 6.63 10.418 0 5.92-4.085 10.215-9.673 10.17-2.105-.016-4.615-.489-5.577-1.05m10.5-5.118c3.818-4.415.658-11.135-5.236-11.135-6.22 0-8.476 8.251-3.357 12.278 3.019 2.375 5.88 1.994 8.593-1.143m-9.948-26.814c-4.732-1.906-6.897-11.266-3.671-15.871.897-1.28 3.181-2.976 5.077-3.768 3.098-1.295 3.816-1.26 7.119.355 12.893 6.303 4.785 24.644-8.525 19.284M1235 257c3.263-3.263 2.216-8.744-2.114-11.06-4.302-2.304-10.83 3.225-9.207 7.798 1.89 5.329 7.607 6.976 11.321 3.262m-80.5 135.945c8.25-.592 16.463-1.292 18.25-1.556l3.25-.48v-43.167l-7.75.608c-4.262.335-13.15.895-19.75 1.245-11.307.6-12.173.796-15 3.41-1.65 1.526-3.953 3.06-5.118 3.41-3.356 1.008-7.25-1.069-9.038-4.82-1.416-2.97-1.461-3.898-.324-6.644 1.476-3.562 5.799-5.9 9.575-5.178 1.335.256 3.573 1.826 4.973 3.49l2.546 3.026 9.193-.674c5.056-.371 13.58-.952 18.941-1.29 5.827-.368 10.162-1.114 10.777-1.855.634-.764.922-7.129.752-16.605l-.277-15.365-3 .126c-1.65.069-10.407.475-19.461.902l-16.461.777-3.157 3.348c-3.628 3.846-6.49 4.212-11.076 1.416-5.965-3.637-4.965-12.611 1.662-14.922 3.816-1.33 7.002-.223 9.877 3.433l2.147 2.73 15.234-.73c8.38-.402 17.26-1.034 19.735-1.405l4.5-.675.307-10.5c.168-5.775.02-12.469-.33-14.875l-.637-4.374-19.17.718c-16.597.622-19.439.965-21.17 2.558-5.397 4.965-12.185 4.417-15.099-1.218-2.736-5.29 1.351-11.809 7.405-11.809 2.681 0 4.228.817 6.887 3.636l3.43 3.637 15.688-.707c8.63-.39 17.264-1.03 19.189-1.426l3.5-.718.288-9.873c.172-5.894-.13-10.291-.75-10.912-2.3-2.299-56.754-4.665-121.788-5.291-35.338-.34-64.25-.326-64.25.032 0 .359 1.462 3.233 3.25 6.387 2.87 5.065 3.25 6.614 3.25 13.256 0 6.514-.45 8.434-3.358 14.342-1.847 3.752-2.972 7.15-2.5 7.553 13.9 11.867 70.314 55.642 101.858 79.04 9.9 7.343 21.375 16.114 25.5 19.49 13.393 10.965 10.917 10.404 37.5 8.499m230.256-79.195.256-79.75h-60.399c-47.426 0-60.49.268-60.823 1.25-.233.688-.084 11.825.33 24.75s1.25 40.375 1.854 61c1.737 59.244 2.07 68.353 2.585 70.758l.483 2.258 57.73-.258 57.728-.258Zm-631.537 55.206c6.946-1.93 12.781-8.653 12.781-14.728 0-9.51-6.4-17.545-14.907-18.715-16.236-2.233-26.263 17.163-14.8 28.627 5.406 5.405 10.048 6.726 16.926 4.816m-11.302-8.738c-4.515-4.035-5.17-10.575-1.497-14.94 3.137-3.728 7.29-4.86 12.06-3.284 7.859 2.593 10.01 11.101 4.416 17.471-2.665 3.036-3.721 3.535-7.484 3.535-3.378 0-5.093-.637-7.495-2.782m10.86-2.775c1.488-1.042 2.223-2.586 2.223-4.671 0-4.17-2.535-6.772-6.598-6.772-5.747 0-8.506 6.896-4.402 11 2.398 2.398 5.746 2.567 8.777.443M798 349.99c11.825-4.32 37.25-13.532 56.5-20.47 19.25-6.94 42.65-15.455 52-18.924 9.35-3.47 23.424-8.684 31.275-11.587 13.707-5.069 17.055-6.898 14.305-7.815-.7-.233-2.752-1.722-4.559-3.309-1.807-1.586-3.927-2.884-4.712-2.884-1.973 0-12.753 4.026-44.809 16.733-15.125 5.996-32 12.609-37.5 14.695-20.668 7.84-88.05 34.896-89.25 35.837-1.279 1.002-1.733 5.919-.647 7.004.331.332 1.794.147 3.25-.41 1.456-.558 12.322-4.55 24.147-8.87m-14.29-8.043c21.884-9.38 52.102-21.48 72.29-28.944 7.22-2.67 58.553-22.902 74-29.165 4.125-1.673 7.867-3.385 8.315-3.804.899-.841-2.116-11.033-3.264-11.033-.643 0-13.286 5.233-45.051 18.649-5.775 2.439-18.375 7.62-28 11.513-17.147 6.935-69.601 29.15-77.5 32.822-2.2 1.023-7.037 3.217-10.75 4.875-3.712 1.659-6.75 3.473-6.75 4.031 0 2.106 2.372 6.11 3.62 6.11.714 0 6.605-2.274 13.09-5.054m-6.065-11.551c17.842-7.78 32.853-14.223 39.355-16.891 3.025-1.241 14.05-5.967 24.5-10.5 10.45-4.535 23.725-10.177 29.5-12.539s16.8-7.054 24.5-10.427 19.625-8.41 26.5-11.192 12.938-5.472 13.472-5.976c1.094-1.029 4.597-13.134 3.98-13.751-.218-.219-3.222.95-6.675 2.596s-17.302 7.839-30.777 13.76c-30.168 13.259-56.978 25.308-89 40-13.475 6.182-30.8 14.06-38.5 17.507-16.92 7.572-17.726 8.184-14.418 10.938 1.33 1.108 2.933 2.028 3.563 2.047.63.018 6.93-2.49 14-5.572M976 287.849c16.339-7.086 20.817-27.756 8.717-40.23-4.692-4.837-13.36-8.648-19.505-8.575-9.055.107-16.676 5.194-21.127 14.102-5.325 10.656-3.981 21.219 3.714 29.186 8.283 8.577 17.148 10.311 28.201 5.517m-15.5-8.508c-5.215-1.397-10.5-9.237-10.5-15.577 0-7.705 9.922-15.574 18.232-14.46 13.693 1.837 17.817 20.537 6.206 28.145-2.652 1.737-10.527 2.806-13.938 1.892m9.901-4.735c4.456-1.862 6.599-5.172 6.599-10.194 0-5.214-2.818-8.978-7.852-10.486-10.032-3.005-18.631 8.562-12.502 16.818 3.774 5.082 7.997 6.268 13.755 3.862M669.615 403.528c-16.58-5.91-19.193-30.244-4.19-39.036 15.37-9.008 33.531 1.016 33.531 18.508 0 3.216-.768 7.19-1.849 9.57-4.446 9.79-16.872 14.743-27.492 10.958m806.84-15.787c-.266-.692-.365-15.648-.22-33.236.228-27.503.475-32.015 1.765-32.24 4.119-.72 4.244.185 4.544 32.872.19 20.628-.068 31.789-.75 32.612-1.344 1.619-4.717 1.614-5.34-.008zm18.027-.927c-.281-.733-.392-15.28-.247-32.324.259-30.235.314-30.99 2.265-30.99 1.958 0 2 .667 2 31.986 0 29.69-.126 32.01-1.753 32.324-.964.186-1.983-.262-2.265-.996m16.972-.073c-.266-.693-.364-15.43-.219-32.75.229-27.208.469-31.491 1.765-31.491 1.297 0 1.536 4.423 1.764 32.75.233 28.983.086 32.75-1.282 32.75-.85 0-1.762-.567-2.028-1.26m-786.713-1.147c-6.6-2.396-12.964-8.224-16.464-15.075-4.232-8.284-4.208-23.524.04-24.341 1.435-.277 1.539.071.686 2.313-1.485 3.908-1.217 12.524.551 17.714 3.394 9.962 13.828 17.765 23.78 17.785 3.416.007 4.712.376 4.421 1.26-.58 1.764-8.525 1.974-13.014.344m755.025-108.51-3.266-2.916-.31-17.846c-.302-17.324-.242-17.949 2.036-21.334 3.012-4.477 5.221-4.786 35.024-4.9L1536 230v15.96l-21.25.27-21.25.27v9l21.25-.155 21.25-.155V280h-52.968z" style="fill:#fb8d38"/><path d="M489.23 875.428c-9.55-4.76-19.701-18.4-24.132-32.428-1.129-3.575-3.434-14.073-5.123-23.33-4.853-26.597-8.01-33.448-26.248-56.965-3.175-4.094-7.787-10.979-10.25-15.3S419 740.298 419 741.214c0 2.75 13.611 63.622 16.294 72.872 3.991 13.758 2.067 17.417-9.152 17.41-5.406-.005-7.497-.507-11.236-2.7-8.783-5.156-13.8-14.143-22.245-39.844-3.527-10.734-7.781-22.229-9.454-25.543-3.353-6.64-13.103-16.505-20.735-20.978-4.313-2.528-5.04-2.64-12.773-1.976-14.36 1.233-23.554 3.485-51.199 12.538-52.34 17.14-73.382 22.237-108 26.167-16.59 1.884-59.006 1.608-76-.494-7.7-.953-14.675-1.925-15.5-2.161s-9.87-1.342-20.101-2.458l-18.601-2.029-26.9 5.057c-31.8 5.979-34.443 6.396-32.398 5.118.825-.516 5.325-1.67 10-2.566 36.615-7.012 46.17-8.625 50.99-8.607 5.807.02 19.345 1.521 45.01 4.989 19.777 2.672 55.197 3.655 75 2.08 36.229-2.88 62.218-8.86 117.133-26.952 26.672-8.787 32.963-10.361 48.633-12.168l10.265-1.184 6.362 4.146c7.702 5.017 17.528 15.033 20.539 20.935 1.214 2.38 5.115 13.102 8.67 23.827 9.158 27.633 14.443 37.214 22.744 41.233 5.832 2.823 14.867 2.86 17.654.074 2.58-2.58 2.52-4.484-.452-14.355-2.109-7.002-6.896-27.907-15.549-67.9-2.012-9.302-2.006-11.745.03-11.745.5 0 2.458 3.35 4.35 7.442 4.173 9.035 8.459 15.59 18.027 27.572 12.674 15.873 17.112 26.401 21.072 49.986 3.858 22.977 8.843 36.06 17.637 46.297 5.329 6.203 13.068 10.681 18.48 10.694 5.013.011 7.06-1.98 7.985-7.767.72-4.503 1.654-4.986 5.9-3.051 3.943 1.796 4.492.3 3.367-9.173-.74-6.24-.539-20.631.759-54.133 2.007-51.811 1.833-54.45-5.092-77.268-1.987-6.545-3.388-12.484-3.115-13.198.274-.713 1.984-2.064 3.8-3.003 9.932-5.135 15.816-13.537 15.779-22.533-.025-6.09-2.692-12.864-6.787-17.24-3.49-3.73-13.406-8.451-19.424-9.25-2.602-.345-5.149-1.134-5.658-1.752-.51-.617-2.758-6.748-4.996-13.623-7.093-21.785-12.05-29.949-21.575-35.53-2.254-1.322-9.71-4.724-16.568-7.56-30.035-12.424-74.156-32.784-75.398-34.794-.43-.696 2.614-4.702 7.605-10.007 4.578-4.866 11.023-11.993 14.323-15.838s7.35-7.932 9-9.08c1.65-1.15 9.75-4.41 18-7.247 28.671-9.858 44.635-19.77 68.685-42.645 10.604-10.085 15.707-14.247 18.482-15.073 4.919-1.463 16.943-2.847 41.333-4.757 39.649-3.106 56.735-6.987 76.865-17.46 15.794-8.216 26.942-19.893 25.637-26.85-1.578-8.412-4.642-9.73-18.039-7.759-17.258 2.54-29.397 3.756-31.34 3.14-2.3-.731-6.52-9.876-8.572-18.584-3.305-14.025-1.351-35.94 4.4-49.348 1.155-2.69 1.826-5.164 1.492-5.498-1.11-1.11-3.475 3.268-5.885 10.895-6.216 19.677-5.756 39.455 1.287 55.377 2.428 5.489 2.757 8.62.905 8.613-1.209-.004-60.51 5.333-95.25 8.572-9.35.872-19.887 2.237-23.416 3.033-3.69.833-15.164 5.655-27 11.348-66.77 32.111-111.877 52.599-158.34 71.917-27.083 11.26-30.373 12.835-140.244 67.113-28.05 13.857-55.773 27.166-61.607 29.575-19.371 7.998-40.41 12.212-62.893 12.599-18.167.312-30-.044-30-.902 0-.412 6.13-.592 13.625-.399 24.755.638 49.553-2.598 68.47-8.936 12.781-4.282 24.648-9.903 108.352-51.319 48.18-23.84 83.895-40.814 102.5-48.717 61.963-26.32 80.832-34.822 140.553-63.334 20.35-9.716 39.51-18.516 42.576-19.557 6.069-2.06 15.968-3.16 76.424-8.499 22-1.943 41.238-3.783 42.75-4.09 3.173-.644 3.331-1.375 1.194-5.507-5.634-10.895-7.378-35.232-3.575-49.892 2.742-10.568 5.957-18.72 7.64-19.365.788-.302 2.094.11 2.901.918 1.29 1.29 1.23 2.007-.504 5.926-4.173 9.435-6.13 19.509-6.22 32.021-.093 13.113 1.473 20.934 5.97 29.81l2.51 4.952 8.456-.687c4.651-.377 12.787-1.336 18.08-2.13 16.4-2.462 19.973-1.908 22.788 3.535 2.418 4.677 1.921 10.154-1.326 14.62-10.145 13.95-32.978 26.087-58.976 31.348-12.338 2.497-21.94 3.645-46.188 5.521-24.674 1.91-34.07 3.108-38.212 4.875-1.808.772-9.486 7.282-17.062 14.468-25.221 23.922-41.153 33.726-70.226 43.212-5.5 1.794-11.631 4.079-13.625 5.076-2.006 1.003-8.552 7.306-14.651 14.107-6.064 6.761-12.628 13.827-14.586 15.701s-3.319 3.8-3.023 4.277c1.182 1.914 46.083 22.832 69.732 32.486 22.781 9.3 28.14 12.79 33.627 21.899 1.91 3.172 5.844 12.772 8.74 21.334l5.267 15.567 7.167 1.762c3.942.97 9.084 2.885 11.426 4.257 8.156 4.78 14.435 14.768 14.42 22.938-.015 8.596-6.06 17.96-14.89 23.072-6.02 3.484-5.957 2.605-1.323 18.5 1.684 5.775 3.64 13.2 4.345 16.5 1.553 7.271 1.494 28.722-.184 66-.668 14.85-.934 33.587-.59 41.637.697 16.334.251 17.803-4.814 15.877-3.184-1.21-4.538-.614-4.538 1.998 0 3.175-2.088 6.707-4.657 7.878-3.814 1.737-7.52 1.324-13.113-1.462m-.704-5.587c-11.79-7.923-18.776-22.31-22.988-47.341-5.122-30.434-7.689-36.144-28.288-62.918-3.987-5.182-7.25-9.668-7.25-9.968s-1.35-2.673-3-5.275c-3.021-4.764-3.832-8.707-2.02-9.826.884-.547 23.578-5.491 26.897-5.86.757-.084 4.132 3.552 7.5 8.08s8.42 11.205 11.228 14.839c2.808 3.633 6.951 10.072 9.208 14.308 5.011 9.405 5.869 14.66 6.626 40.62.305 10.45 1.217 22.31 2.027 26.355 1.526 7.614 6.766 20.263 9.248 22.323 2.465 2.045 4.411 6.827 4.469 10.977.065 4.755-.733 5.736-5.27 6.472-2.758.447-4.373-.09-8.387-2.786m16.329-12.591c-5.894-6.336-8.25-10.41-10.757-18.605-2.542-8.306-2.646-15.651-.485-34.256 2.1-18.084 1.476-36.372-1.534-44.889-1.166-3.3-3.912-9.15-6.101-13-6.748-11.863-10.281-19.599-9.356-20.484 1.056-1.01 22.842-7.07 26.359-7.331 2.856-.213 3.656 1.599 7.588 17.174 3.256 12.898 3.943 27.868 2.397 52.177-.716 11.255-1.339 32.501-1.384 47.214-.058 18.93-.407 26.75-1.195 26.75-.612 0-3.102-2.137-5.532-4.75m-86.374-31.644c-4.016-1.75-9.064-7.637-11.972-13.963-5.09-11.073-6.445-14.646-10.602-27.973-3.242-10.395-4.002-13.993-3.075-14.566 2.658-1.643 11.98.665 17.509 4.334 9.637 6.397 12.891 10.848 15.034 20.562 1.032 4.675 2.945 12.165 4.25 16.645 2.8 9.605 3.066 14.876.793 15.748-2.634 1.01-8.735.609-11.937-.787M178 764.426c-38.091-4.375-54.815-9.29-91.213-26.806-33.558-16.149-49.676-20.98-70.287-21.068-6.05-.026-12.237.298-13.75.72l-2.75.766V670.02c0-37.728.268-48.027 1.25-48.058.688-.022 9.8-.012 20.25.022 24.383.08 40.493-1.922 58-7.202 13.207-3.984 30.082-11.657 81.5-37.062 103.14-50.958 110.74-54.592 137.5-65.733 15.383-6.405 27.516-11.574 40.5-17.256 38.246-16.735 45.16-19.816 52-23.172 7.182-3.524 39.516-18.86 73.5-34.863 19.331-9.103 13.801-8.17 87.5-14.762 30.178-2.699 73.538-7.174 82.745-8.54 13.238-1.964 16.374-1.663 17.99 1.728 2.052 4.303-.094 8.273-8.22 15.206-19.806 16.898-44.964 24.334-93.515 27.642-21.328 1.453-36.629 3.75-42 6.306-2.627 1.25-9.91 7.363-17.5 14.688-22.219 21.445-40.071 32.413-68.5 42.084l-15.5 5.273-9 9.567C365.882 570.56 274.375 659 271.118 659c-.608 0-8.566-4.956-17.684-11.014-15.47-10.277-18.482-11.698-18.403-8.677.037 1.403-.033 1.35 21.074 15.754 25.497 17.4 44.384 26.18 67.95 31.592 11.223 2.577 40.258 2.32 57.643-.51 18.878-3.074 23.643-4.307 50.636-13.099 13.291-4.329 27.766-8.657 32.166-9.618 10.665-2.329 35.121-2.421 41.136-.155 11.496 4.33 17.476 11.127 18.165 20.646.519 7.182-1.79 12.14-8.337 17.903-5.706 5.024-8.739 6.027-46.964 15.532-45.637 11.35-56.526 13.349-82.5 15.147-42.283 2.928-45.405 3.216-55.5 5.13-8.24 1.562-18.993 4.462-35.423 9.552-23.135 7.169-50.746 13.483-69.077 15.797-8.969 1.133-42.054 2.13-48 1.447m276.5-106.99c-1.65-1.36-6.375-4.797-10.5-7.636-20.797-14.315-35.259-29.83-44.098-47.307-3.873-7.66-5.343-11.77-5.686-15.896-.35-4.217-.115-5.698.967-6.114.785-.301 5.903 1.531 11.372 4.072 5.47 2.54 17.37 7.777 26.445 11.635 32.074 13.636 34.964 15.027 39.448 18.973 5.31 4.674 8.933 11.757 13.986 27.344 4.84 14.926 4.921 14.493-2.71 14.493-5.874 0-21.374 1.563-24.724 2.493-.825.229-2.85-.697-4.5-2.057m234.09-212.063c-.947-2.467 1.009-4.086 5.806-4.805 11.89-1.783 26.712-12.634 35.338-25.873 4.408-6.765 5.707-7.529 7.627-4.485 1.213 1.924-3.497 10.194-10.114 17.758-10.422 11.914-36.294 23.563-38.657 17.405m13.189-2.456c7.281-2.459 16.029-7.944 22.028-13.812 4.62-4.52 12.193-15.55 12.193-17.76 0-2.845-2.074-1.133-4.553 3.76-5.927 11.695-22.184 23.902-35.93 26.979-3.035.679-5.517 1.613-5.517 2.075 0 1.477 5.42.906 11.779-1.242M675.75 422.44c-1.304-1.343-.812-4.201.832-4.832.87-.334 3.328-.607 5.462-.607 10.566 0 22.729-8.678 28.382-20.25 2.86-5.854 4.397-6.873 6.515-4.321 1.879 2.264-3.327 12.09-9.874 18.638-7.076 7.076-15.308 11.074-24.067 11.688-3.575.25-6.838.108-7.25-.316m16.706-3.508c7.714-2.886 15.32-9.427 19.794-17.02 2.063-3.501 3.75-6.938 3.75-7.638 0-2.862-2.068-.925-5.114 4.79-5.869 11.01-16.726 18.659-27.929 19.675-3.307.3-6.253.931-6.544 1.403-1.056 1.708 10.592.829 16.043-1.21m-53.172-26.62c-2.511-3.833-2.485-18.8.046-26.06 2.532-7.262 9.406-16.231 15.376-20.062 8.006-5.138 13.198-6.487 23.117-6.007 7.444.36 9.556.89 14.86 3.723 6.716 3.587 8.22 5.62 5.885 7.956-1.341 1.34-1.7 1.334-3.287-.061-7.75-6.817-22.174-8.473-32.281-3.706-7.025 3.314-13.607 9.903-16.888 16.906-2.129 4.543-2.58 6.979-2.595 14-.01 4.675.325 9.72.742 11.21.602 2.15.351 2.928-1.216 3.767-1.65.883-2.268.609-3.759-1.666m3.325-1.561c-5.252-18.932 5.018-39.353 22.815-45.363 9.765-3.298 23.599-1.296 29.796 4.312.986.892 2.127 1.284 2.536.872 1.384-1.396-5.218-5.605-12.116-7.725-16.906-5.194-34.875 3.225-43.015 20.154-2.858 5.945-3.125 7.353-3.125 16.5 0 5.5.323 10.788.719 11.75 1.075 2.62 3.136 2.189 2.39-.5m-30.359-4.412c-1.84-.743-1.604-17.266.36-25.274 5.89-24.011 23.637-41.762 47.688-47.698 5.227-1.29 7.065-1.403 7.975-.493 2.178 2.178-.717 4.556-7.817 6.417-10.367 2.718-18.07 7.265-26.56 15.676-11.724 11.617-17.027 24.506-17.295 42.034-.14 9.166-.874 10.74-4.351 9.338m2.765-9.588c.025-14.1 3.947-26.268 11.843-36.75 8.1-10.75 20.691-19.183 33.543-22.463 6.269-1.6 7.329-2.14 6.272-3.198-1.306-1.306-11.993 1.923-20.563 6.213-14.814 7.416-25.336 19.98-30.524 36.448-2.645 8.395-4.123 20.279-3.101 24.931 1.252 5.703 2.515 3.117 2.53-5.181m108.33-60.413c-6.92-5.373-21.443-12.576-29.845-14.802-14.315-3.793-32.494-2.917-45.25 2.18-6.375 2.548-9.25 2.508-9.25-.127 0-2.235 3.667-4.37 12.5-7.28 6.954-2.292 9.7-2.641 21-2.67 19.071-.05 33.355 4.15 48.79 14.343 8.891 5.872 11.803 8.613 11.099 10.449-1.096 2.856-3.34 2.337-9.044-2.093m6.494-.031c-4.234-5.102-22.449-14.85-34.375-18.395-9.585-2.85-27.551-3.618-37.097-1.586-7.792 1.659-17.367 5.407-17.367 6.798 0 1.254.48 1.158 8.26-1.649 11.096-4.002 24.173-5.14 36.04-3.135 14.981 2.531 29.816 9.03 40.621 17.793 3.476 2.82 6.214 2.94 3.918.174" style="fill:#418aa6"/><path d="M488.368 873.038c-13.621-7.813-21.933-24.515-26.89-54.038-3.96-23.585-8.398-34.113-21.072-49.986-9.568-11.983-13.854-18.537-18.028-27.572-1.891-4.093-3.848-7.442-4.35-7.442-2.035 0-2.041 2.443-.029 11.745 8.653 39.993 13.44 60.898 15.549 67.9 2.972 9.871 3.032 11.775.452 14.355-2.787 2.787-11.822 2.749-17.654-.074-8.301-4.019-13.586-13.6-22.744-41.233-3.555-10.725-7.456-21.447-8.67-23.827-3.011-5.902-12.837-15.918-20.539-20.935l-6.362-4.146-10.266 1.184c-15.669 1.807-21.96 3.381-48.632 12.168C244.218 769.23 218.229 775.21 182 778.09c-19.804 1.575-55.223.592-75-2.08-25.736-3.477-39.207-4.968-45.077-4.99-3.067-.01-12.742 1.345-21.5 3.011-31.598 6.013-36.95 7.063-38.673 7.58-1.641.492-1.75-1.468-1.75-31.524v-32.048l2.75-.766c1.513-.422 7.7-.746 13.75-.72 20.61.088 36.73 4.919 70.287 21.068 31.717 15.263 50.525 21.363 78.713 25.529 11.264 1.664 46.565 1.66 59.5-.006 19.5-2.513 46.59-8.682 70.077-15.96 16.43-5.09 27.184-7.99 35.423-9.552 10.095-1.914 13.217-2.203 55.5-5.13 25.974-1.799 36.863-3.798 82.5-15.147 38.225-9.506 41.258-10.509 46.964-15.532 6.547-5.763 8.856-10.722 8.337-17.903-.689-9.52-6.669-16.316-18.165-20.647-6.015-2.266-30.471-2.173-41.136.156-4.4.96-18.875 5.289-32.166 9.618-26.993 8.792-31.758 10.024-50.636 13.098-17.385 2.83-46.42 3.087-57.642.51-23.567-5.41-42.454-14.192-67.951-31.592-21.107-14.403-21.037-14.35-21.074-15.753-.08-3.021 2.934-1.6 18.403 8.676C262.552 654.044 270.51 659 271.118 659c3.257 0 94.764-88.44 127.382-123.113l9-9.567 15.5-5.273c28.429-9.67 46.281-20.639 68.5-42.084 7.59-7.325 14.873-13.438 17.5-14.688 5.371-2.555 20.672-4.853 42-6.306 48.55-3.308 73.709-10.744 93.515-27.642 8.126-6.933 10.272-10.903 8.22-15.206-1.616-3.391-4.752-3.692-17.99-1.728-9.207 1.366-52.567 5.841-82.745 8.54-73.699 6.592-68.169 5.66-87.5 14.762-33.984 16.002-66.318 31.339-73.5 34.863-6.84 3.356-13.754 6.437-52 23.173-12.984 5.68-25.117 10.85-40.5 17.255-26.76 11.141-34.36 14.775-137.5 65.733-28.325 13.995-56.675 27.584-63 30.198-26.619 11-44.246 14.182-77.75 14.03L0 621.855v-2.495c0-2.073.352-2.383 2.082-1.834 1.146.364 10.933.665 21.75.67 29.045.015 49.006-3.537 71.061-12.643 5.834-2.41 33.557-15.718 61.607-29.575 109.871-54.278 113.161-55.853 140.244-67.113 46.463-19.318 91.57-39.806 158.34-71.917 11.836-5.693 23.31-10.515 27-11.348 3.529-.796 14.066-2.16 23.416-3.033 34.74-3.24 94.041-8.576 95.25-8.572 1.852.007 1.523-3.124-.905-8.613-7.043-15.922-7.503-35.7-1.287-55.377 2.41-7.627 4.775-12.006 5.885-10.895.334.334-.337 2.808-1.491 5.498-5.752 13.409-7.706 35.323-4.4 49.348 2.052 8.708 6.27 17.853 8.571 18.583 1.943.617 14.082-.6 31.34-3.139 13.397-1.971 16.46-.653 18.039 7.759 1.305 6.957-9.843 18.634-25.637 26.85-20.13 10.473-37.216 14.354-76.865 17.46-24.39 1.91-36.414 3.294-41.333 4.757-2.775.826-7.878 4.988-18.482 15.073-24.05 22.876-40.014 32.787-68.685 42.645-8.25 2.837-16.35 6.098-18 7.246-1.65 1.15-5.7 5.236-9 9.08-3.3 3.846-9.745 10.973-14.323 15.839-4.991 5.305-8.036 9.31-7.605 10.007 1.242 2.01 45.363 22.37 75.398 34.793 6.858 2.837 14.314 6.24 16.568 7.56 9.525 5.582 14.482 13.746 21.575 35.531 2.238 6.875 4.486 13.006 4.996 13.623.51.618 3.056 1.407 5.658 1.752 6.018.799 15.935 5.52 19.424 9.25 4.095 4.376 6.762 11.15 6.787 17.24.037 8.996-5.847 17.398-15.78 22.533-1.815.939-3.525 2.29-3.799 3.003-.273.714 1.128 6.653 3.115 13.198 6.925 22.819 7.1 25.457 5.092 77.268-1.298 33.502-1.5 47.893-.759 54.133 1.125 9.474.576 10.97-3.367 9.173-4.246-1.935-5.18-1.452-5.9 3.05-.371 2.324-1.399 5.024-2.283 6-2.52 2.786-8.887 2.28-14.929-1.185m12.915-1.92c2.467-2.468.14-12.863-3.569-15.94-2.482-2.06-7.722-14.71-9.248-22.323-.81-4.045-1.722-15.905-2.027-26.355-.757-25.96-1.615-31.215-6.626-40.62-2.257-4.236-6.4-10.675-9.208-14.308a1237 1237 0 0 1-11.228-14.84c-3.368-4.527-6.743-8.163-7.5-8.079-3.319.369-26.013 5.313-26.898 5.86-1.811 1.12-1 5.062 2.021 9.826 1.65 2.602 3 4.976 3 5.275s3.262 4.786 7.25 9.968c20.6 26.774 23.166 32.484 28.288 62.918 2.219 13.187 4.65 21.966 7.945 28.696 6.367 13.004 16.763 22.513 23.43 21.43 1.878-.304 3.844-.983 4.37-1.509m10.3-35.868c.044-14.713.667-35.959 1.383-47.214 1.546-24.309.859-39.279-2.397-52.177-3.932-15.575-4.732-17.387-7.588-17.174-3.517.261-25.303 6.32-26.359 7.33-.925.886 2.608 8.622 9.356 20.485 2.19 3.85 4.935 9.7 6.101 13 3.01 8.517 3.635 26.805 1.534 44.89-.887 7.639-1.613 16.929-1.613 20.644 0 7.394 2.867 18.273 6.316 23.966 2.721 4.492 10.622 13 12.07 13 .789 0 1.138-7.82 1.196-26.75m-81.165-8.857c2.273-.872 2.008-6.143-.793-15.748-1.305-4.48-3.218-11.97-4.25-16.645-2.143-9.714-5.397-14.165-15.034-20.562-5.528-3.67-14.85-5.977-17.51-4.334-.926.573-.166 4.17 3.076 14.566 8.195 26.273 14.804 38.55 22.574 41.936 3.202 1.396 9.303 1.798 11.937.787m38.556-168.355c4.66-.57 11.298-1.038 14.75-1.038 7.631 0 7.55.433 2.71-14.493-5.053-15.587-8.676-22.67-13.986-27.344-4.484-3.946-7.374-5.337-39.448-18.973-9.075-3.858-20.975-9.094-26.445-11.635-5.47-2.54-10.587-4.373-11.372-4.072-1.082.416-1.316 1.897-.967 6.114.343 4.127 1.813 8.236 5.686 15.896 8.84 17.478 23.301 32.992 44.098 47.307 4.125 2.84 8.85 6.275 10.5 7.636s3.675 2.286 4.5 2.057 5.313-.884 9.974-1.455M690 444.16c0-.462 2.482-1.396 5.516-2.075 13.747-3.077 30.004-15.284 35.931-26.98 2.48-4.892 4.553-6.604 4.553-3.759 0 2.21-7.572 13.24-12.193 17.76-6 5.868-14.747 11.353-22.028 13.812-6.359 2.148-11.779 2.719-11.779 1.242m-13.587-24.018c.291-.472 3.237-1.103 6.544-1.403 11.203-1.016 22.06-8.665 27.929-19.675 3.046-5.715 5.114-7.652 5.114-4.79 0 .7-1.687 4.137-3.75 7.637-6.754 11.463-19.077 19.09-30.847 19.09-3.036 0-5.282-.386-4.99-.859m-36.194-28.891c-.396-.962-.719-6.25-.719-11.75 0-9.147.267-10.555 3.125-16.5 8.14-16.929 26.109-25.348 43.015-20.154 6.898 2.12 13.5 6.329 12.116 7.725-.409.412-1.55.02-2.536-.872-6.197-5.608-20.031-7.61-29.796-4.312-17.797 6.01-28.067 26.431-22.815 45.363.746 2.689-1.315 3.12-2.39.5m-27.734-9.319c-1.022-4.652.456-16.536 3.101-24.931 5.188-16.468 15.71-29.032 30.524-36.448 8.57-4.29 19.257-7.519 20.563-6.213 1.057 1.057-.003 1.598-6.272 3.198-12.852 3.28-25.444 11.713-33.543 22.463-7.896 10.482-11.818 22.65-11.843 36.75-.015 8.298-1.278 10.884-2.53 5.181m113.436-65.8c-10.805-8.763-25.64-15.26-40.62-17.792-11.868-2.005-24.945-.867-36.04 3.135-7.782 2.807-8.261 2.903-8.261 1.65 0-1.392 9.575-5.14 17.367-6.8 9.546-2.031 27.512-1.263 37.097 1.587 11.926 3.546 30.14 13.293 34.375 18.395 2.296 2.767-.442 2.645-3.918-.174" style="fill:#055478"/></svg>